<svg xmlns="http://www.w3.org/2000/svg" xmlns:xlink="http://www.w3.org/1999/xlink" width="500" zoomAndPan="magnify" viewBox="0 0 375 374.999991" height="500" preserveAspectRatio="xMidYMid meet" version="1.0"><defs><clipPath id="c4ad775d66"><path d="M 33.320312 74.410156 L 368.625 74.410156 L 368.625 309.761719 L 33.320312 309.761719 Z M 33.320312 74.410156 " clip-rule="nonzero"/></clipPath><clipPath id="5594b0e5c5"><path d="M 119.777344 0 L 279.4375 0 L 279.4375 375 L 119.777344 375 Z M 119.777344 0 " clip-rule="nonzero"/></clipPath></defs><g clip-path="url(#c4ad775d66)"><path fill="#ecc00c" d="M 358.238281 227.140625 C 302.882812 123.179688 76.53125 30.46875 38.269531 97.765625 C 32.078125 108.644531 32.800781 121.402344 36.460938 133.367188 C 37.769531 132.617188 39.167969 132.003906 40.640625 131.570312 C 37.464844 120.867188 36.675781 109.742188 42.308594 100.101562 C 46.414062 93.03125 53.574219 88.105469 61.46875 85.351562 C 133.15625 60.066406 298.019531 151.433594 343.238281 235.121094 C 349.773438 247.34375 355.84375 263.792969 349.648438 276.273438 C 322.609375 328.226562 132.054688 265.089844 58.574219 165.1875 C 57.332031 166.234375 55.941406 167.105469 54.453125 167.8125 C 123.761719 265.222656 318.941406 352.082031 361.925781 287.121094 C 373.683594 268.675781 368.371094 246.425781 358.238281 227.140625 " fill-opacity="1" fill-rule="nonzero"/></g><path fill="#a1cff0" d="M 38.136719 138.296875 C 34.304688 140.878906 31.78125 145.257812 31.78125 150.238281 C 31.78125 158.175781 38.210938 164.613281 46.140625 164.613281 C 53.992188 164.613281 60.507812 158.195312 60.507812 150.238281 C 60.507812 138.734375 47.628906 131.902344 38.136719 138.296875 " fill-opacity="1" fill-rule="nonzero"/><g clip-path="url(#5594b0e5c5)"><path fill="#e75a59" d="M 198.289062 0.00390625 C 121.136719 1.714844 98.078125 204.457031 141.886719 316.148438 C 143.140625 315.398438 144.464844 314.78125 145.867188 314.320312 C 95.3125 180.039062 155.441406 -28.824219 217 23.515625 C 234.007812 38.023438 244.882812 66.769531 251.234375 88.203125 C 260.835938 120.933594 265.753906 155.515625 266.375 190.15625 L 266.375 190.140625 C 267.582031 257.214844 252.847656 333.191406 220.40625 360.914062 C 200.050781 378.390625 179.300781 369.835938 163.59375 348.332031 C 162.464844 349.191406 161.253906 349.925781 159.953125 350.519531 C 177.644531 374.910156 200.882812 383.5625 223.832031 365.058594 C 243.394531 349.136719 256.015625 319.585938 263.5 295.609375 C 300.84375 175.070312 269.867188 0.00390625 198.289062 0.00390625 " fill-opacity="1" fill-rule="nonzero"/></g><path fill="#a1cff0" d="M 147.71875 319.078125 C 141.707031 320.890625 137.492188 326.425781 137.492188 332.839844 C 137.492188 342.859375 147.539062 349.882812 157.003906 346.246094 C 162.433594 344.160156 166.214844 338.914062 166.214844 332.839844 C 166.214844 323.203125 156.910156 316.292969 147.71875 319.078125 " fill-opacity="1" fill-rule="nonzero"/><path fill="#56c4ba" d="M 277.96875 223.859375 C 158.390625 310.191406 6.121094 322.976562 53.066406 235.101562 C 98.964844 150.667969 265.441406 61.785156 334.707031 85.773438 C 353.183594 92.152344 362.015625 107.011719 356.546875 129.035156 C 357.9375 129.394531 359.273438 129.894531 360.519531 130.527344 C 365.214844 113.507812 362.539062 97.503906 348.976562 86.976562 C 290.8125 41.472656 90.925781 127.355469 38.121094 227.152344 C 28.316406 245.816406 22.710938 267.023438 33.175781 285.339844 C 74.199219 352.652344 271.378906 266.023438 342.800781 165.152344 C 341.8125 164.636719 340.867188 164.03125 339.976562 163.355469 C 324.027344 186.582031 300.40625 207.742188 277.96875 223.859375 " fill-opacity="1" fill-rule="nonzero"/><path fill="#a1cff0" d="M 355.164062 133.9375 C 338.257812 129.773438 330.117188 153.710938 345.734375 160.925781 C 355.28125 165.335938 366.105469 158.324219 366.105469 147.882812 C 366.105469 141.203125 361.519531 135.488281 355.164062 133.9375 " fill-opacity="1" fill-rule="nonzero"/><path fill="#64baea" d="M 228.675781 195.789062 C 228.675781 212.003906 215.535156 225.15625 199.332031 225.15625 C 183.132812 225.15625 169.992188 212.003906 169.992188 195.789062 C 169.992188 179.570312 183.132812 166.421875 199.332031 166.421875 C 215.535156 166.421875 228.675781 179.570312 228.675781 195.789062 " fill-opacity="1" fill-rule="nonzero"/></svg>